<svg width="132" height="32" viewBox="0 0 132 32" fill="none" xmlns="http://www.w3.org/2000/svg">
<path d="M64.6506 19.9211C63.6753 19.9211 62.814 19.7564 62.0666 19.4271C61.3193 19.0851 60.7303 18.6038 60.2996 17.9831C59.869 17.3498 59.6473 16.5834 59.6346 15.6841H62.1996C62.225 16.3048 62.4466 16.8304 62.8646 17.2611C63.2953 17.6791 63.8843 17.8881 64.6316 17.8881C65.2776 17.8881 65.7906 17.7361 66.1706 17.4321C66.5506 17.1154 66.7406 16.6974 66.7406 16.1781C66.7406 15.6334 66.5696 15.2091 66.2276 14.9051C65.8983 14.6011 65.455 14.3541 64.8976 14.1641C64.3403 13.9741 63.745 13.7714 63.1116 13.5561C62.0856 13.2014 61.3003 12.7454 60.7556 12.1881C60.2236 11.6308 59.9576 10.8898 59.9576 9.96511C59.945 9.17978 60.1286 8.50845 60.5086 7.95111C60.9013 7.38111 61.4333 6.94411 62.1046 6.64011C62.776 6.32345 63.5486 6.16511 64.4226 6.16511C65.3093 6.16511 66.0883 6.32345 66.7596 6.64011C67.4436 6.95678 67.9756 7.40011 68.3556 7.97011C68.7483 8.54011 68.9573 9.21778 68.9826 10.0031H66.3796C66.367 9.53445 66.1833 9.12278 65.8286 8.76811C65.4866 8.40078 65.0053 8.21711 64.3846 8.21711C63.8526 8.20445 63.403 8.33745 63.0356 8.61612C62.681 8.88211 62.5036 9.27478 62.5036 9.79411C62.5036 10.2374 62.643 10.5921 62.9216 10.8581C63.2003 11.1114 63.5803 11.3268 64.0616 11.5041C64.543 11.6814 65.094 11.8714 65.7146 12.0741C66.3733 12.3021 66.975 12.5681 67.5196 12.8721C68.0643 13.1761 68.5013 13.5814 68.8306 14.0881C69.16 14.5821 69.3246 15.2218 69.3246 16.0071C69.3246 16.7038 69.1473 17.3498 68.7926 17.9451C68.438 18.5404 67.9123 19.0218 67.2156 19.3891C66.519 19.7438 65.664 19.9211 64.6506 19.9211ZM74.8285 19.9211C73.8785 19.9211 73.0362 19.7184 72.3015 19.3131C71.5669 18.9078 70.9905 18.3378 70.5725 17.6031C70.1545 16.8684 69.9455 16.0198 69.9455 15.0571C69.9455 14.0818 70.1482 13.2141 70.5535 12.4541C70.9715 11.6941 71.5415 11.1051 72.2635 10.6871C72.9982 10.2564 73.8595 10.0411 74.8475 10.0411C75.7722 10.0411 76.5892 10.2438 77.2985 10.6491C78.0079 11.0544 78.5589 11.6118 78.9515 12.3211C79.3569 13.0178 79.5595 13.7968 79.5595 14.6581C79.5595 14.7974 79.5532 14.9431 79.5405 15.0951C79.5405 15.2471 79.5342 15.4054 79.5215 15.5701H72.3585C72.4092 16.3048 72.6625 16.8811 73.1185 17.2991C73.5872 17.7171 74.1509 17.9261 74.8095 17.9261C75.3035 17.9261 75.7152 17.8184 76.0445 17.6031C76.3865 17.3751 76.6399 17.0838 76.8045 16.7291H79.2745C79.0972 17.3244 78.7995 17.8691 78.3815 18.3631C77.9762 18.8444 77.4695 19.2244 76.8615 19.5031C76.2662 19.7818 75.5885 19.9211 74.8285 19.9211ZM74.8475 12.0171C74.2522 12.0171 73.7265 12.1881 73.2705 12.5301C72.8145 12.8594 72.5232 13.3661 72.3965 14.0501H77.0895C77.0515 13.4294 76.8235 12.9354 76.4055 12.5681C75.9875 12.2008 75.4682 12.0171 74.8475 12.0171ZM83.714 19.9211C82.9033 19.9211 82.2383 19.7944 81.719 19.5411C81.1997 19.2751 80.8133 18.9268 80.56 18.4961C80.3067 18.0654 80.18 17.5904 80.18 17.0711C80.18 16.1971 80.522 15.4878 81.206 14.9431C81.89 14.3984 82.916 14.1261 84.284 14.1261H86.678V13.8981C86.678 13.2521 86.4943 12.7771 86.127 12.4731C85.7597 12.1691 85.3037 12.0171 84.759 12.0171C84.265 12.0171 83.8343 12.1374 83.467 12.3781C83.0997 12.6061 82.8717 12.9481 82.783 13.4041H80.408C80.4713 12.7201 80.6993 12.1248 81.092 11.6181C81.4973 11.1114 82.0167 10.7251 82.65 10.4591C83.2833 10.1804 83.9927 10.0411 84.778 10.0411C86.1207 10.0411 87.1783 10.3768 87.951 11.0481C88.7237 11.7194 89.11 12.6694 89.11 13.8981V19.6931H87.039L86.811 18.1731C86.5323 18.6798 86.1397 19.0978 85.633 19.4271C85.139 19.7564 84.4993 19.9211 83.714 19.9211ZM84.265 18.0211C84.9617 18.0211 85.5 17.7931 85.88 17.3371C86.2727 16.8811 86.5197 16.3174 86.621 15.6461H84.55C83.904 15.6461 83.4417 15.7664 83.163 16.0071C82.8843 16.2351 82.745 16.5201 82.745 16.8621C82.745 17.2294 82.8843 17.5144 83.163 17.7171C83.4417 17.9198 83.809 18.0211 84.265 18.0211ZM90.2908 19.6931V10.2691H92.4568L92.6848 12.0361C93.0268 11.4281 93.4892 10.9468 94.0718 10.5921C94.6672 10.2248 95.3638 10.0411 96.1618 10.0411V12.6061H95.4778C94.9458 12.6061 94.4708 12.6884 94.0528 12.8531C93.6348 13.0178 93.3055 13.3028 93.0648 13.7081C92.8368 14.1134 92.7228 14.6771 92.7228 15.3991V19.6931H90.2908ZM101.134 19.9211C100.171 19.9211 99.3227 19.7121 98.588 19.2941C97.8534 18.8761 97.2707 18.2934 96.84 17.5461C96.422 16.7988 96.213 15.9438 96.213 14.9811C96.213 14.0184 96.422 13.1634 96.84 12.4161C97.2707 11.6688 97.8534 11.0861 98.588 10.6681C99.3227 10.2501 100.171 10.0411 101.134 10.0411C102.337 10.0411 103.351 10.3578 104.174 10.9911C104.997 11.6118 105.523 12.4731 105.751 13.5751H103.186C103.059 13.1191 102.806 12.7644 102.426 12.5111C102.059 12.2451 101.622 12.1121 101.115 12.1121C100.444 12.1121 99.8737 12.3654 99.405 12.8721C98.9364 13.3788 98.702 14.0818 98.702 14.9811C98.702 15.8804 98.9364 16.5834 99.405 17.0901C99.8737 17.5968 100.444 17.8501 101.115 17.8501C101.622 17.8501 102.059 17.7234 102.426 17.4701C102.806 17.2168 103.059 16.8558 103.186 16.3871H105.751C105.523 17.4511 104.997 18.3061 104.174 18.9521C103.351 19.5981 102.337 19.9211 101.134 19.9211ZM106.77 19.6931V6.01311H109.202V11.7131C109.518 11.1938 109.943 10.7884 110.475 10.4971C111.019 10.1931 111.64 10.0411 112.337 10.0411C113.502 10.0411 114.401 10.4084 115.035 11.1431C115.681 11.8778 116.004 12.9544 116.004 14.3731V19.6931H113.591V14.6011C113.591 13.7904 113.426 13.1698 113.097 12.7391C112.78 12.3084 112.273 12.0931 111.577 12.0931C110.893 12.0931 110.323 12.3338 109.867 12.8151C109.423 13.2964 109.202 13.9678 109.202 14.8291V19.6931H106.77Z" fill="white"/>
<g clip-path="url(#clip0_306_616)">
<path d="M30.4073 29.8279L22.6723 22.0929C24.6816 19.6356 25.6695 16.5 25.4316 13.3347C25.1938 10.1694 23.7485 7.21658 21.3946 5.08705C19.0407 2.95752 15.9584 1.81418 12.7852 1.89352C9.61198 1.97286 6.59065 3.26881 4.34614 5.51332C2.10164 7.75782 0.805683 10.7792 0.726343 13.9524C0.647002 17.1256 1.79034 20.2079 3.91988 22.5618C6.04941 24.9157 9.0022 26.361 12.1675 26.5988C15.3328 26.8366 18.4684 25.8488 20.9257 23.8395L28.6607 31.5745L30.4073 29.8279ZM13.1142 24.1631C11.1598 24.1631 9.24925 23.5836 7.6242 22.4978C5.99915 21.4119 4.73258 19.8686 3.98465 18.063C3.23673 16.2573 3.04104 14.2704 3.42233 12.3536C3.80362 10.4367 4.74476 8.67592 6.12675 7.29393C7.50874 5.91194 9.2695 4.97079 11.1864 4.5895C13.1033 4.20821 15.0901 4.4039 16.8958 5.15183C18.7015 5.89976 20.2448 7.16633 21.3306 8.79137C22.4164 10.4164 22.996 12.327 22.996 14.2814C22.993 16.9013 21.951 19.413 20.0984 21.2656C18.2459 23.1181 15.7341 24.1602 13.1142 24.1631Z" fill="white"/>
</g>
<defs>
<clipPath id="clip0_306_616">
<rect width="29.6453" height="29.6453" fill="white" transform="translate(0.762268 1.92834)"/>
</clipPath>
</defs>
</svg>
