<svg width="180" height="33" viewBox="0 0 180 33" fill="none" xmlns="http://www.w3.org/2000/svg">
<path d="M61.5486 19.4541V14.7231L57.0836 6.1541H59.8386L62.7836 12.2911L65.7096 6.1541H68.4266L63.9806 14.7231V19.4541H61.5486ZM71.6212 19.6821C70.7092 19.6821 69.8858 19.4731 69.1512 19.0551C68.4292 18.6371 67.8528 18.0608 67.4222 17.3261C67.0042 16.5788 66.7952 15.7174 66.7952 14.7421C66.7952 13.7668 67.0105 12.9118 67.4412 12.1771C67.8718 11.4298 68.4482 10.8471 69.1702 10.4291C69.9048 10.0111 70.7282 9.8021 71.6402 9.8021C72.5395 9.8021 73.3502 10.0111 74.0722 10.4291C74.8068 10.8471 75.3832 11.4298 75.8012 12.1771C76.2318 12.9118 76.4472 13.7668 76.4472 14.7421C76.4472 15.7174 76.2318 16.5788 75.8012 17.3261C75.3832 18.0608 74.8068 18.6371 74.0722 19.0551C73.3375 19.4731 72.5205 19.6821 71.6212 19.6821ZM71.6212 17.5731C72.2545 17.5731 72.8055 17.3388 73.2742 16.8701C73.7428 16.3888 73.9772 15.6794 73.9772 14.7421C73.9772 13.8048 73.7428 13.1018 73.2742 12.6331C72.8055 12.1518 72.2608 11.9111 71.6402 11.9111C70.9942 11.9111 70.4368 12.1518 69.9682 12.6331C69.5122 13.1018 69.2842 13.8048 69.2842 14.7421C69.2842 15.6794 69.5122 16.3888 69.9682 16.8701C70.4368 17.3388 70.9878 17.5731 71.6212 17.5731ZM81.0156 19.6821C79.8376 19.6821 78.9256 19.3148 78.2796 18.5801C77.6463 17.8454 77.3296 16.7688 77.3296 15.3501V10.0301H79.7426V15.1221C79.7426 15.9328 79.9073 16.5534 80.2366 16.9841C80.5659 17.4148 81.0853 17.6301 81.7946 17.6301C82.4659 17.6301 83.0169 17.3894 83.4476 16.9081C83.8909 16.4268 84.1126 15.7554 84.1126 14.8941V10.0301H86.5446V19.4541H84.3976L84.2076 17.8581C83.9163 18.4154 83.4919 18.8588 82.9346 19.1881C82.3899 19.5174 81.7503 19.6821 81.0156 19.6821ZM87.9012 19.4541V10.0301H90.0672L90.2952 11.7971C90.6372 11.1891 91.0995 10.7078 91.6822 10.3531C92.2775 9.98577 92.9742 9.8021 93.7722 9.8021V12.3671H93.0882C92.5562 12.3671 92.0812 12.4494 91.6632 12.6141C91.2452 12.7788 90.9158 13.0638 90.6752 13.4691C90.4472 13.8744 90.3332 14.4381 90.3332 15.1601V19.4541H87.9012ZM97.7387 19.4541V6.1541H100.171V17.5541H106.061V19.4541H97.7387ZM108.318 8.5671C107.874 8.5671 107.507 8.4341 107.216 8.1681C106.937 7.9021 106.798 7.56643 106.798 7.1611C106.798 6.75577 106.937 6.42643 107.216 6.1731C107.507 5.9071 107.874 5.7741 108.318 5.7741C108.761 5.7741 109.122 5.9071 109.401 6.1731C109.692 6.42643 109.838 6.75577 109.838 7.1611C109.838 7.56643 109.692 7.9021 109.401 8.1681C109.122 8.4341 108.761 8.5671 108.318 8.5671ZM107.102 19.4541V10.0301H109.534V19.4541H107.102ZM116.518 19.6821C115.809 19.6821 115.188 19.5491 114.656 19.2831C114.124 19.0171 113.693 18.6434 113.364 18.1621L113.098 19.4541H110.932V5.7741H113.364V11.3791C113.668 10.9611 114.067 10.5938 114.561 10.2771C115.068 9.96043 115.72 9.8021 116.518 9.8021C117.405 9.8021 118.196 10.0174 118.893 10.4481C119.59 10.8788 120.141 11.4678 120.546 12.2151C120.951 12.9624 121.154 13.8111 121.154 14.7611C121.154 15.7111 120.951 16.5598 120.546 17.3071C120.141 18.0418 119.59 18.6244 118.893 19.0551C118.196 19.4731 117.405 19.6821 116.518 19.6821ZM116.005 17.5541C116.778 17.5541 117.417 17.2944 117.924 16.7751C118.431 16.2558 118.684 15.5844 118.684 14.7611C118.684 13.9378 118.431 13.2601 117.924 12.7281C117.417 12.1961 116.778 11.9301 116.005 11.9301C115.22 11.9301 114.574 12.1961 114.067 12.7281C113.573 13.2474 113.326 13.9188 113.326 14.7421C113.326 15.5654 113.573 16.2431 114.067 16.7751C114.574 17.2944 115.22 17.5541 116.005 17.5541ZM122.187 19.4541V10.0301H124.353L124.581 11.7971C124.923 11.1891 125.385 10.7078 125.968 10.3531C126.563 9.98577 127.26 9.8021 128.058 9.8021V12.3671H127.374C126.842 12.3671 126.367 12.4494 125.949 12.6141C125.531 12.7788 125.201 13.0638 124.961 13.4691C124.733 13.8744 124.619 14.4381 124.619 15.1601V19.4541H122.187ZM131.829 19.6821C131.018 19.6821 130.353 19.5554 129.834 19.3021C129.314 19.0361 128.928 18.6878 128.675 18.2571C128.421 17.8264 128.295 17.3514 128.295 16.8321C128.295 15.9581 128.637 15.2488 129.321 14.7041C130.005 14.1594 131.031 13.8871 132.399 13.8871H134.793V13.6591C134.793 13.0131 134.609 12.5381 134.242 12.2341C133.874 11.9301 133.418 11.7781 132.874 11.7781C132.38 11.7781 131.949 11.8984 131.582 12.1391C131.214 12.3671 130.986 12.7091 130.898 13.1651H128.523C128.586 12.4811 128.814 11.8858 129.207 11.3791C129.612 10.8724 130.131 10.4861 130.765 10.2201C131.398 9.94143 132.107 9.8021 132.893 9.8021C134.235 9.8021 135.293 10.1378 136.066 10.8091C136.838 11.4804 137.225 12.4304 137.225 13.6591V19.4541H135.154L134.926 17.9341C134.647 18.4408 134.254 18.8588 133.748 19.1881C133.254 19.5174 132.614 19.6821 131.829 19.6821ZM132.38 17.7821C133.076 17.7821 133.615 17.5541 133.995 17.0981C134.387 16.6421 134.634 16.0784 134.736 15.4071H132.665C132.019 15.4071 131.556 15.5274 131.278 15.7681C130.999 15.9961 130.86 16.2811 130.86 16.6231C130.86 16.9904 130.999 17.2754 131.278 17.4781C131.556 17.6808 131.924 17.7821 132.38 17.7821ZM138.406 19.4541V10.0301H140.572L140.8 11.7971C141.142 11.1891 141.604 10.7078 142.187 10.3531C142.782 9.98577 143.479 9.8021 144.277 9.8021V12.3671H143.593C143.061 12.3671 142.586 12.4494 142.168 12.6141C141.75 12.7788 141.42 13.0638 141.18 13.4691C140.952 13.8744 140.838 14.4381 140.838 15.1601V19.4541H138.406ZM145.977 23.6341L148.162 18.8271H147.592L143.925 10.0301H146.566L149.207 16.6611L151.962 10.0301H154.546L148.561 23.6341H145.977Z" fill="white"/>
<rect x="-0.00250244" y="4.15979" width="1.23522" height="28.4101" fill="white"/>
<rect x="8.64404" y="4.15979" width="1.23522" height="28.4101" fill="white"/>
<rect x="14.8201" y="4.65503" width="1.23522" height="29.3017" transform="rotate(-23.634 14.8201 4.65503)" fill="white"/>
</svg>
